<svg width="1034" height="1010" viewBox="0 0 1034 1010" fill="none" xmlns="http://www.w3.org/2000/svg">
<rect width="1034" height="1010" fill="#191A18"/>
<path d="M665.166 193C665.166 301.8 552.666 430 517.166 430C486.666 430 369.166 301.8 369.166 193C369.166 84.1999 435.428 36 517.166 36C598.904 36 665.166 84.1999 665.166 193Z" fill="white" stroke="#191A18" stroke-width="12"/>
<path d="M369.166 817C369.166 708.2 481.666 580 517.166 580C547.666 580 665.166 708.2 665.166 817C665.166 925.8 598.904 974 517.166 974C435.428 974 369.166 925.8 369.166 817Z" fill="white" stroke="#191A18" stroke-width="12"/>
<path d="M172.966 532.828C267.19 478.428 434.464 511.756 452.214 542.5C467.464 568.914 415.19 734.772 320.966 789.172C226.742 843.572 151.869 810.287 111 739.5C70.1309 668.713 78.7424 587.228 172.966 532.828Z" fill="white" stroke="#191A18" stroke-width="12"/>
<path d="M861.366 477.172C767.142 531.572 599.868 498.244 582.118 467.5C566.868 441.086 619.142 275.228 713.366 220.828C807.59 166.428 882.463 199.713 923.332 270.5C964.201 341.287 955.59 422.772 861.366 477.172Z" fill="white" stroke="#191A18" stroke-width="12"/>
<path d="M320.966 220.828C415.19 275.228 469.964 436.756 452.214 467.5C436.964 493.914 267.19 531.572 172.966 477.172C78.7423 422.772 70.1309 341.287 111 270.5C151.869 199.713 226.742 166.428 320.966 220.828Z" fill="white" stroke="#191A18" stroke-width="12"/>
<path d="M713.366 789.172C619.142 734.772 564.368 573.244 582.118 542.5C597.368 516.086 767.142 478.428 861.366 532.828C955.59 587.228 964.201 668.713 923.332 739.5C882.463 810.287 807.59 843.572 713.366 789.172Z" fill="white" stroke="#191A18" stroke-width="12"/>
<circle cx="517.166" cy="510" r="198" fill="#FEC809" stroke="#191A18" stroke-width="12"/>
<path d="M418.104 548C436.007 592.903 470.435 623 517.166 623C565.554 623 599.442 592.903 616.793 548" stroke="#191A18" stroke-width="16" stroke-linecap="round"/>
<path d="M585.666 422.5C591.597 422.5 597.091 427.158 601.132 434.971C605.16 442.758 607.666 453.551 607.666 465.5C607.666 477.449 605.16 488.242 601.132 496.029C597.091 503.842 591.597 508.5 585.666 508.5C579.735 508.5 574.241 503.842 570.2 496.029C566.172 488.242 563.666 477.449 563.666 465.5C563.666 453.551 566.172 442.758 570.2 434.971C574.241 427.158 579.735 422.5 585.666 422.5Z" fill="#191A18" stroke="#191A18"/>
<path d="M448.666 422.5C454.597 422.5 460.091 427.158 464.132 434.971C468.16 442.758 470.666 453.551 470.666 465.5C470.666 477.449 468.16 488.242 464.132 496.029C460.091 503.842 454.597 508.5 448.666 508.5C442.735 508.5 437.241 503.842 433.2 496.029C429.172 488.242 426.666 477.449 426.666 465.5C426.666 453.551 429.172 442.758 433.2 434.971C437.241 427.158 442.735 422.5 448.666 422.5Z" fill="#191A18" stroke="#191A18"/>
</svg>
